<svg width="15" height="13" viewBox="0 0 15 13" fill="none" xmlns="http://www.w3.org/2000/svg">
<path d="M1.08912 6.06306C1.06489 5.96634 1.06303 5.86536 1.08368 5.76781C1.10433 5.67026 1.14694 5.5787 1.20829 5.50009C1.26963 5.42148 1.34809 5.35789 1.4377 5.31415C1.52731 5.27042 1.6257 5.24768 1.72542 5.24768H13.1656C13.2653 5.24771 13.3636 5.27043 13.4531 5.31413C13.5427 5.35784 13.6211 5.42136 13.6824 5.49989C13.7438 5.57842 13.7864 5.66989 13.8071 5.76735C13.8278 5.86482 13.826 5.96572 13.8019 6.0624L12.614 10.8136C12.543 11.0975 12.3792 11.3494 12.1487 11.5295C11.9181 11.7096 11.6339 11.8074 11.3414 11.8074H3.54968C3.25713 11.8074 2.97297 11.7096 2.7424 11.5295C2.51182 11.3494 2.34804 11.0975 2.27709 10.8136L1.08912 6.06306Z" stroke="black" stroke-width="1.31195" stroke-linejoin="round"/>
<path d="M5.47763 7.87165V9.1836M9.41349 7.87165V9.1836M3.5097 5.24774L6.13361 1.31189M11.3814 5.24774L8.75751 1.31189" stroke="black" stroke-width="1.31195" stroke-linecap="round"/>
</svg>
