<svg width="60" height="60" viewBox="0 0 60 60" fill="none" xmlns="http://www.w3.org/2000/svg">
<rect width="60" height="60" rx="30" fill="#FFB528" fill-opacity="0.15"/>
<path d="M40.8544 32.5885C40.4012 33.0469 40.193 33.7099 40.2962 34.3601L41.8518 43.3462C41.983 44.1079 41.675 44.8786 41.0644 45.3188C40.4659 45.7754 39.6698 45.8302 39.0171 45.4649L31.2674 41.2458C30.9979 41.0961 30.6987 41.0157 30.3925 41.0066H29.9183C29.7538 41.0321 29.5929 41.0869 29.4459 41.1709L21.6944 45.4101C21.3112 45.611 20.8773 45.6823 20.4521 45.611C19.4162 45.4065 18.725 44.3764 18.8948 43.2896L20.4521 34.3035C20.5553 33.6478 20.3471 32.9812 19.8939 32.5154L13.5755 26.1229C13.047 25.5877 12.8633 24.7841 13.1048 24.059C13.3392 23.3357 13.9377 22.8079 14.6603 22.6892L23.3567 21.3724C24.0181 21.3011 24.599 20.881 24.8965 20.2601L28.7285 12.0593C28.8195 11.8767 28.9367 11.7087 29.0784 11.5662L29.2359 11.4383C29.3182 11.3434 29.4126 11.2648 29.5176 11.2009L29.7084 11.1279L30.0058 11H30.7425C31.4004 11.0712 31.9796 11.4822 32.2823 12.0959L36.165 20.2601C36.445 20.8573 36.9892 21.2719 37.6173 21.3724L46.3137 22.6892C47.0486 22.7988 47.6628 23.3284 47.906 24.059C48.1352 24.7914 47.9375 25.5951 47.3985 26.1229L40.8544 32.5885Z" fill="#E39530"/>
</svg>
