<svg width="60" height="60" viewBox="0 0 60 60" fill="none" xmlns="http://www.w3.org/2000/svg">
<rect width="60" height="60" rx="30" fill="#FFB528" fill-opacity="0.15"/>
<path fill-rule="evenodd" clip-rule="evenodd" d="M29.5201 47.8447C29.7156 47.9488 29.9341 48.0018 30.1527 48C30.3712 47.9983 30.5879 47.9435 30.7851 47.8376L37.0814 44.4044C38.8668 43.4337 40.265 42.3482 41.3558 41.0843C43.7276 38.3308 45.0227 34.8165 44.9997 31.1928L44.925 19.2396C44.918 17.8628 44.0314 16.6343 42.7202 16.1877L31.0071 12.1792C30.3019 11.9356 29.5291 11.9409 28.8362 12.1916L17.1675 16.3431C15.8635 16.8073 14.9929 18.0446 15 19.4231L15.0747 31.3675C15.0978 34.9965 16.4373 38.4949 18.8481 41.2202C19.9496 42.4664 21.3603 43.5361 23.1653 44.491L29.5201 47.8447ZM27.8534 33.7961C28.1163 34.0539 28.4575 34.1809 28.7985 34.1774C29.1396 34.1756 29.479 34.045 29.7383 33.7838L36.6191 26.8647C37.1361 26.3439 37.1308 25.5072 36.6084 24.9935C36.0843 24.48 35.2404 24.4835 34.7235 25.0042L28.779 30.9808L26.345 28.5943C25.821 28.0808 24.9788 28.0861 24.4601 28.6067C23.9431 29.1275 23.9484 29.9641 24.4725 30.4777L27.8534 33.7961Z" fill="#E39530"/>
</svg>
